# MagicaVoxel @ Ephtracy

# group
g mid2

# material
mtllib mid2.mtl
usemtl palette

# normals
vn -1 0 0
vn 1 0 0
vn 0 0 1
vn 0 0 -1
vn 0 -1 0
vn 0 1 0

# texcoords
vt 0.306641 0.5
vt 0.958984 0.5

# verts
v -8 0 8
v -8 0 5
v -8 0 3
v -8 0 -3
v -8 0 -5
v -8 0 -8
v -8 3 5
v -8 3 3
v -8 3 -3
v -8 3 -5
v -8 8 8
v -8 8 -8
v -5 0 5
v -5 0 3
v -5 0 -3
v -5 0 -5
v -5 7 5
v -5 7 3
v -5 7 -3
v -5 7 -5
v -3 0 8
v -3 0 7
v -3 0 -7
v -3 0 -8
v -3 3 8
v -3 3 7
v -3 3 -7
v -3 3 -8
v -1 0 1
v -1 0 -1
v -1 7 1
v -1 7 -1
v 3 0 5
v 3 0 3
v 3 0 -3
v 3 0 -5
v 3 7 5
v 3 7 3
v 3 7 -3
v 3 7 -5
v 5 0 8
v 5 0 7
v 5 0 -7
v 5 0 -8
v 5 3 8
v 5 3 7
v 5 3 -7
v 5 3 -8
v 7 0 7
v 7 0 5
v 7 0 3
v 7 0 -3
v 7 0 -5
v 7 0 -7
v 7 3 5
v 7 3 3
v 7 3 -3
v 7 3 -5
v 7 7 7
v 7 7 -7
v -7 0 7
v -7 0 5
v -7 0 3
v -7 0 -3
v -7 0 -5
v -7 0 -7
v -7 3 5
v -7 3 3
v -7 3 -3
v -7 3 -5
v -7 7 7
v -7 7 -7
v -5 0 8
v -5 0 7
v -5 0 -7
v -5 0 -8
v -5 3 8
v -5 3 7
v -5 3 -7
v -5 3 -8
v -3 0 5
v -3 0 3
v -3 0 -3
v -3 0 -5
v -3 7 5
v -3 7 3
v -3 7 -3
v -3 7 -5
v 1 0 1
v 1 0 -1
v 1 7 1
v 1 7 -1
v 3 0 8
v 3 0 7
v 3 0 -7
v 3 0 -8
v 3 3 8
v 3 3 7
v 3 3 -7
v 3 3 -8
v 5 0 5
v 5 0 3
v 5 0 -3
v 5 0 -5
v 5 7 5
v 5 7 3
v 5 7 -3
v 5 7 -5
v 8 0 8
v 8 0 5
v 8 0 3
v 8 0 -3
v 8 0 -5
v 8 0 -8
v 8 3 5
v 8 3 3
v 8 3 -3
v 8 3 -5
v 8 8 8
v 8 8 -8
v -8 0 8
v -8 8 8
v -5 0 8
v -5 3 8
v -3 0 8
v -3 3 8
v 3 0 8
v 3 3 8
v 5 0 8
v 5 3 8
v 8 0 8
v 8 8 8
v -5 0 5
v -5 7 5
v -3 0 5
v -3 7 5
v 3 0 5
v 3 7 5
v 5 0 5
v 5 7 5
v -8 0 3
v -8 3 3
v -7 0 3
v -7 3 3
v 7 0 3
v 7 3 3
v 8 0 3
v 8 3 3
v -1 0 1
v -1 7 1
v 1 0 1
v 1 7 1
v -5 0 -3
v -5 7 -3
v -3 0 -3
v -3 7 -3
v 3 0 -3
v 3 7 -3
v 5 0 -3
v 5 7 -3
v -8 0 -5
v -8 3 -5
v -7 0 -5
v -7 3 -5
v 7 0 -5
v 7 3 -5
v 8 0 -5
v 8 3 -5
v -7 0 -7
v -7 7 -7
v -5 0 -7
v -5 3 -7
v -3 0 -7
v -3 3 -7
v 3 0 -7
v 3 3 -7
v 5 0 -7
v 5 3 -7
v 7 0 -7
v 7 7 -7
v -7 0 7
v -7 7 7
v -5 0 7
v -5 3 7
v -3 0 7
v -3 3 7
v 3 0 7
v 3 3 7
v 5 0 7
v 5 3 7
v 7 0 7
v 7 7 7
v -8 0 5
v -8 3 5
v -7 0 5
v -7 3 5
v 7 0 5
v 7 3 5
v 8 0 5
v 8 3 5
v -5 0 3
v -5 7 3
v -3 0 3
v -3 7 3
v 3 0 3
v 3 7 3
v 5 0 3
v 5 7 3
v -1 0 -1
v -1 7 -1
v 1 0 -1
v 1 7 -1
v -8 0 -3
v -8 3 -3
v -7 0 -3
v -7 3 -3
v 7 0 -3
v 7 3 -3
v 8 0 -3
v 8 3 -3
v -5 0 -5
v -5 7 -5
v -3 0 -5
v -3 7 -5
v 3 0 -5
v 3 7 -5
v 5 0 -5
v 5 7 -5
v -8 0 -8
v -8 8 -8
v -5 0 -8
v -5 3 -8
v -3 0 -8
v -3 3 -8
v 3 0 -8
v 3 3 -8
v 5 0 -8
v 5 3 -8
v 8 0 -8
v 8 8 -8
v -8 0 8
v -5 0 8
v -3 0 8
v 3 0 8
v 5 0 8
v 8 0 8
v -7 0 7
v -5 0 7
v -3 0 7
v 3 0 7
v 5 0 7
v 7 0 7
v -8 0 5
v -7 0 5
v -5 0 5
v -3 0 5
v 3 0 5
v 5 0 5
v 7 0 5
v 8 0 5
v -8 0 3
v -7 0 3
v -5 0 3
v -3 0 3
v 3 0 3
v 5 0 3
v 7 0 3
v 8 0 3
v -1 0 1
v 1 0 1
v -1 0 -1
v 1 0 -1
v -8 0 -3
v -7 0 -3
v -5 0 -3
v -3 0 -3
v 3 0 -3
v 5 0 -3
v 7 0 -3
v 8 0 -3
v -8 0 -5
v -7 0 -5
v -5 0 -5
v -3 0 -5
v 3 0 -5
v 5 0 -5
v 7 0 -5
v 8 0 -5
v -7 0 -7
v -5 0 -7
v -3 0 -7
v 3 0 -7
v 5 0 -7
v 7 0 -7
v -8 0 -8
v -5 0 -8
v -3 0 -8
v 3 0 -8
v 5 0 -8
v 8 0 -8
v -5 3 8
v -3 3 8
v 3 3 8
v 5 3 8
v -5 3 7
v -3 3 7
v 3 3 7
v 5 3 7
v -8 3 5
v -7 3 5
v 7 3 5
v 8 3 5
v -8 3 3
v -7 3 3
v 7 3 3
v 8 3 3
v -8 3 -3
v -7 3 -3
v 7 3 -3
v 8 3 -3
v -8 3 -5
v -7 3 -5
v 7 3 -5
v 8 3 -5
v -5 3 -7
v -3 3 -7
v 3 3 -7
v 5 3 -7
v -5 3 -8
v -3 3 -8
v 3 3 -8
v 5 3 -8
v -7 7 7
v 7 7 7
v -5 7 5
v -3 7 5
v 3 7 5
v 5 7 5
v -5 7 3
v -3 7 3
v 3 7 3
v 5 7 3
v -1 7 1
v 1 7 1
v -1 7 -1
v 1 7 -1
v -5 7 -3
v -3 7 -3
v 3 7 -3
v 5 7 -3
v -5 7 -5
v -3 7 -5
v 3 7 -5
v 5 7 -5
v -7 7 -7
v 7 7 -7
v -8 8 8
v 8 8 8
v -8 8 -8
v 8 8 -8

# faces
f 7/1/1 2/1/1 1/1/1
f 8/1/1 4/1/1 3/1/1
f 9/1/1 4/1/1 8/1/1
f 10/1/1 6/1/1 5/1/1
f 11/1/1 9/1/1 8/1/1
f 11/1/1 10/1/1 9/1/1
f 11/1/1 7/1/1 1/1/1
f 11/1/1 8/1/1 7/1/1
f 12/1/1 6/1/1 10/1/1
f 12/1/1 10/1/1 11/1/1
f 17/2/1 14/2/1 13/2/1
f 18/2/1 14/2/1 17/2/1
f 19/2/1 16/2/1 15/2/1
f 20/2/1 16/2/1 19/2/1
f 25/1/1 22/1/1 21/1/1
f 26/1/1 22/1/1 25/1/1
f 27/1/1 24/1/1 23/1/1
f 28/1/1 24/1/1 27/1/1
f 31/2/1 30/2/1 29/2/1
f 32/2/1 30/2/1 31/2/1
f 37/2/1 34/2/1 33/2/1
f 38/2/1 34/2/1 37/2/1
f 39/2/1 36/2/1 35/2/1
f 40/2/1 36/2/1 39/2/1
f 45/1/1 42/1/1 41/1/1
f 46/1/1 42/1/1 45/1/1
f 47/1/1 44/1/1 43/1/1
f 48/1/1 44/1/1 47/1/1
f 55/1/1 50/1/1 49/1/1
f 56/1/1 52/1/1 51/1/1
f 57/1/1 52/1/1 56/1/1
f 58/1/1 54/1/1 53/1/1
f 59/1/1 57/1/1 56/1/1
f 59/1/1 58/1/1 57/1/1
f 59/1/1 55/1/1 49/1/1
f 59/1/1 56/1/1 55/1/1
f 60/1/1 54/1/1 58/1/1
f 60/1/1 58/1/1 59/1/1
f 61/1/2 62/1/2 67/1/2
f 63/1/2 64/1/2 68/1/2
f 68/1/2 64/1/2 69/1/2
f 65/1/2 66/1/2 70/1/2
f 68/1/2 69/1/2 71/1/2
f 69/1/2 70/1/2 71/1/2
f 61/1/2 67/1/2 71/1/2
f 67/1/2 68/1/2 71/1/2
f 70/1/2 66/1/2 72/1/2
f 71/1/2 70/1/2 72/1/2
f 73/1/2 74/1/2 77/1/2
f 77/1/2 74/1/2 78/1/2
f 75/1/2 76/1/2 79/1/2
f 79/1/2 76/1/2 80/1/2
f 81/2/2 82/2/2 85/2/2
f 85/2/2 82/2/2 86/2/2
f 83/2/2 84/2/2 87/2/2
f 87/2/2 84/2/2 88/2/2
f 89/2/2 90/2/2 91/2/2
f 91/2/2 90/2/2 92/2/2
f 93/1/2 94/1/2 97/1/2
f 97/1/2 94/1/2 98/1/2
f 95/1/2 96/1/2 99/1/2
f 99/1/2 96/1/2 100/1/2
f 101/2/2 102/2/2 105/2/2
f 105/2/2 102/2/2 106/2/2
f 103/2/2 104/2/2 107/2/2
f 107/2/2 104/2/2 108/2/2
f 109/1/2 110/1/2 115/1/2
f 111/1/2 112/1/2 116/1/2
f 116/1/2 112/1/2 117/1/2
f 113/1/2 114/1/2 118/1/2
f 116/1/2 117/1/2 119/1/2
f 117/1/2 118/1/2 119/1/2
f 109/1/2 115/1/2 119/1/2
f 115/1/2 116/1/2 119/1/2
f 118/1/2 114/1/2 120/1/2
f 119/1/2 118/1/2 120/1/2
f 123/1/3 122/1/3 121/1/3
f 124/1/3 122/1/3 123/1/3
f 126/1/3 122/1/3 124/1/3
f 127/1/3 126/1/3 125/1/3
f 128/1/3 122/1/3 126/1/3
f 128/1/3 126/1/3 127/1/3
f 130/1/3 122/1/3 128/1/3
f 131/1/3 130/1/3 129/1/3
f 132/1/3 122/1/3 130/1/3
f 132/1/3 130/1/3 131/1/3
f 135/2/3 134/2/3 133/2/3
f 136/2/3 134/2/3 135/2/3
f 139/2/3 138/2/3 137/2/3
f 140/2/3 138/2/3 139/2/3
f 143/1/3 142/1/3 141/1/3
f 144/1/3 142/1/3 143/1/3
f 147/1/3 146/1/3 145/1/3
f 148/1/3 146/1/3 147/1/3
f 151/2/3 150/2/3 149/2/3
f 152/2/3 150/2/3 151/2/3
f 155/2/3 154/2/3 153/2/3
f 156/2/3 154/2/3 155/2/3
f 159/2/3 158/2/3 157/2/3
f 160/2/3 158/2/3 159/2/3
f 163/1/3 162/1/3 161/1/3
f 164/1/3 162/1/3 163/1/3
f 167/1/3 166/1/3 165/1/3
f 168/1/3 166/1/3 167/1/3
f 171/1/3 170/1/3 169/1/3
f 172/1/3 170/1/3 171/1/3
f 174/1/3 170/1/3 172/1/3
f 175/1/3 174/1/3 173/1/3
f 176/1/3 170/1/3 174/1/3
f 176/1/3 174/1/3 175/1/3
f 178/1/3 170/1/3 176/1/3
f 179/1/3 178/1/3 177/1/3
f 180/1/3 170/1/3 178/1/3
f 180/1/3 178/1/3 179/1/3
f 181/1/4 182/1/4 183/1/4
f 183/1/4 182/1/4 184/1/4
f 184/1/4 182/1/4 186/1/4
f 185/1/4 186/1/4 187/1/4
f 186/1/4 182/1/4 188/1/4
f 187/1/4 186/1/4 188/1/4
f 188/1/4 182/1/4 190/1/4
f 189/1/4 190/1/4 191/1/4
f 190/1/4 182/1/4 192/1/4
f 191/1/4 190/1/4 192/1/4
f 193/1/4 194/1/4 195/1/4
f 195/1/4 194/1/4 196/1/4
f 197/1/4 198/1/4 199/1/4
f 199/1/4 198/1/4 200/1/4
f 201/2/4 202/2/4 203/2/4
f 203/2/4 202/2/4 204/2/4
f 205/2/4 206/2/4 207/2/4
f 207/2/4 206/2/4 208/2/4
f 209/2/4 210/2/4 211/2/4
f 211/2/4 210/2/4 212/2/4
f 213/1/4 214/1/4 215/1/4
f 215/1/4 214/1/4 216/1/4
f 217/1/4 218/1/4 219/1/4
f 219/1/4 218/1/4 220/1/4
f 221/2/4 222/2/4 223/2/4
f 223/2/4 222/2/4 224/2/4
f 225/2/4 226/2/4 227/2/4
f 227/2/4 226/2/4 228/2/4
f 229/1/4 230/1/4 231/1/4
f 231/1/4 230/1/4 232/1/4
f 232/1/4 230/1/4 234/1/4
f 233/1/4 234/1/4 235/1/4
f 234/1/4 230/1/4 236/1/4
f 235/1/4 234/1/4 236/1/4
f 236/1/4 230/1/4 238/1/4
f 237/1/4 238/1/4 239/1/4
f 238/1/4 230/1/4 240/1/4
f 239/1/4 238/1/4 240/1/4
f 247/1/5 242/1/5 241/1/5
f 248/1/5 242/1/5 247/1/5
f 249/1/5 244/1/5 243/1/5
f 250/1/5 244/1/5 249/1/5
f 251/1/5 246/1/5 245/1/5
f 252/1/5 246/1/5 251/1/5
f 253/1/5 247/1/5 241/1/5
f 254/1/5 247/1/5 253/1/5
f 259/1/5 246/1/5 252/1/5
f 260/1/5 246/1/5 259/1/5
f 263/2/5 256/2/5 255/2/5
f 264/2/5 256/2/5 263/2/5
f 265/2/5 258/2/5 257/2/5
f 266/2/5 258/2/5 265/2/5
f 271/2/5 270/2/5 269/2/5
f 272/2/5 270/2/5 271/2/5
f 273/1/5 262/1/5 261/1/5
f 274/1/5 262/1/5 273/1/5
f 279/1/5 268/1/5 267/1/5
f 280/1/5 268/1/5 279/1/5
f 283/2/5 276/2/5 275/2/5
f 284/2/5 276/2/5 283/2/5
f 285/2/5 278/2/5 277/2/5
f 286/2/5 278/2/5 285/2/5
f 289/1/5 282/1/5 281/1/5
f 294/1/5 288/1/5 287/1/5
f 295/1/5 289/1/5 281/1/5
f 295/1/5 290/1/5 289/1/5
f 296/1/5 290/1/5 295/1/5
f 297/1/5 292/1/5 291/1/5
f 298/1/5 292/1/5 297/1/5
f 299/1/5 294/1/5 293/1/5
f 300/1/5 288/1/5 294/1/5
f 300/1/5 294/1/5 299/1/5
f 305/1/5 302/1/5 301/1/5
f 306/1/5 302/1/5 305/1/5
f 307/1/5 304/1/5 303/1/5
f 308/1/5 304/1/5 307/1/5
f 313/1/5 310/1/5 309/1/5
f 314/1/5 310/1/5 313/1/5
f 315/1/5 312/1/5 311/1/5
f 316/1/5 312/1/5 315/1/5
f 321/1/5 318/1/5 317/1/5
f 322/1/5 318/1/5 321/1/5
f 323/1/5 320/1/5 319/1/5
f 324/1/5 320/1/5 323/1/5
f 329/1/5 326/1/5 325/1/5
f 330/1/5 326/1/5 329/1/5
f 331/1/5 328/1/5 327/1/5
f 332/1/5 328/1/5 331/1/5
f 335/1/5 334/1/5 333/1/5
f 336/1/5 334/1/5 335/1/5
f 337/1/5 334/1/5 336/1/5
f 338/1/5 334/1/5 337/1/5
f 339/1/5 335/1/5 333/1/5
f 340/1/5 337/1/5 336/1/5
f 341/1/5 337/1/5 340/1/5
f 342/1/5 334/1/5 338/1/5
f 343/1/5 341/1/5 340/1/5
f 343/1/5 342/1/5 341/1/5
f 343/1/5 340/1/5 339/1/5
f 344/1/5 342/1/5 343/1/5
f 345/1/5 343/1/5 339/1/5
f 346/1/5 342/1/5 344/1/5
f 347/1/5 339/1/5 333/1/5
f 347/1/5 346/1/5 345/1/5
f 347/1/5 345/1/5 339/1/5
f 348/1/5 346/1/5 347/1/5
f 349/1/5 342/1/5 346/1/5
f 349/1/5 346/1/5 348/1/5
f 350/1/5 334/1/5 342/1/5
f 350/1/5 342/1/5 349/1/5
f 351/1/5 347/1/5 333/1/5
f 352/1/5 349/1/5 348/1/5
f 353/1/5 349/1/5 352/1/5
f 354/1/5 334/1/5 350/1/5
f 355/1/5 351/1/5 333/1/5
f 355/1/5 354/1/5 353/1/5
f 355/1/5 353/1/5 352/1/5
f 355/1/5 352/1/5 351/1/5
f 356/1/5 334/1/5 354/1/5
f 356/1/5 354/1/5 355/1/5
f 357/1/6 358/1/6 359/1/6
f 359/1/6 358/1/6 360/1/6
